{
    "asset" : {
        "generator" : "Khronos glTF Blender I/O v1.6.16",
        "version" : "2.0"
    },
    "scene" : 0,
    "scenes" : [
        {
            "name" : "Scene",
            "nodes" : [
                0,
                1,
                2
            ]
        }
    ],
    "nodes" : [
        {
            "mesh" : 0,
            "name" : "M",
            "scale" : [
                3.8640096187591553,
                3.72285795211792,
                4.928445339202881
            ],
            "translation" : [
                2.74228572845459,
                1.564159870147705,
                17.326955795288086
            ]
        },
        {
            "mesh" : 1,
            "name" : "M.003",
            "rotation" : [
                0,
                -0.9146268963813782,
                0,
                0.40429890155792236
            ],
            "scale" : [
                4.4504804611206055,
                3.72285795211792,
                4.350613117218018
            ],
            "translation" : [
                -6.938765525817871,
                -12.434025764465332,
                -5.2430195808410645
            ]
        },
        {
            "name" : "Spot",
            "scale" : [
                13.218381881713867,
                13.218381881713867,
                13.218381881713867
            ],
            "translation" : [
                0,
                90.96548461914062,
                0
            ]
        }
    ],
    "materials" : [
        {
            "doubleSided" : true,
            "name" : "Material.001",
            "pbrMetallicRoughness" : {}
        },
        {
            "doubleSided" : true,
            "name" : "Material.004",
            "pbrMetallicRoughness" : {}
        }
    ],
    "meshes" : [
        {
            "name" : "M",
            "primitives" : [
                {
                    "attributes" : {
                        "POSITION" : 0,
                        "NORMAL" : 1
                    },
                    "indices" : 2,
                    "material" : 0
                }
            ]
        },
        {
            "name" : "M.003",
            "primitives" : [
                {
                    "attributes" : {
                        "POSITION" : 3,
                        "NORMAL" : 4
                    },
                    "indices" : 5,
                    "material" : 1
                }
            ]
        }
    ],
    "accessors" : [
        {
            "bufferView" : 0,
            "componentType" : 5126,
            "count" : 9110,
            "max" : [
                8.005854606628418,
                14.643304824829102,
                5.038599967956543
            ],
            "min" : [
                -5.044005870819092,
                -6.727768898010254,
                -9.268391609191895
            ],
            "type" : "VEC3"
        },
        {
            "bufferView" : 1,
            "componentType" : 5126,
            "count" : 9110,
            "type" : "VEC3"
        },
        {
            "bufferView" : 2,
            "componentType" : 5123,
            "count" : 10053,
            "type" : "SCALAR"
        },
        {
            "bufferView" : 3,
            "componentType" : 5126,
            "count" : 3967,
            "max" : [
                4.429023265838623,
                14.643304824829102,
                6.2910590171813965
            ],
            "min" : [
                -2.2765371799468994,
                -2.327450752258301,
                -7.1086835861206055
            ],
            "type" : "VEC3"
        },
        {
            "bufferView" : 4,
            "componentType" : 5126,
            "count" : 3967,
            "type" : "VEC3"
        },
        {
            "bufferView" : 5,
            "componentType" : 5123,
            "count" : 3987,
            "type" : "SCALAR"
        }
    ],
    "bufferViews" : [
        {
            "buffer" : 0,
            "byteLength" : 109320,
            "byteOffset" : 0
        },
        {
            "buffer" : 0,
            "byteLength" : 109320,
            "byteOffset" : 109320
        },
        {
            "buffer" : 0,
            "byteLength" : 20106,
            "byteOffset" : 218640
        },
        {
            "buffer" : 0,
            "byteLength" : 47604,
            "byteOffset" : 238748
        },
        {
            "buffer" : 0,
            "byteLength" : 47604,
            "byteOffset" : 286352
        },
        {
            "buffer" : 0,
            "byteLength" : 7974,
            "byteOffset" : 333956
        }
    ],
    "buffers" : [
        {
            "byteLength" : 341932,
            "uri" : "data:application/octet-stream;base64,"
        }
    ]
}
